<svg width="136" height="136" viewBox="0 0 136 136" fill="none" xmlns="http://www.w3.org/2000/svg">
<path fill-rule="evenodd" clip-rule="evenodd" d="M39.9716 20H100.794H116.227V35.4326L116.227 96.4823H100.794V35.4326H39.9716V20ZM36.7104 45.0972C38.6381 46.9671 39.1726 47.156 40.2171 46.3369C40.9228 45.7836 41.045 44.5057 40.4663 43.8297H35.4036L36.7104 45.0972ZM50.2445 44.8346L49.2317 43.8297H54.3531L54.4303 43.9471C54.959 44.7514 54.8879 45.6018 54.2378 46.2496C53.212 47.2723 52.4181 46.9911 50.2445 44.8346ZM64.44 45.0972L63.1332 43.8297H68.1959C68.7746 44.5057 68.6524 45.7836 67.9467 46.3369C66.9022 47.156 66.3677 46.9671 64.44 45.0972ZM78.2051 45.0972L76.874 43.8297H82.0619L82.1782 44.0538C82.6739 45.0093 82.6168 45.6023 81.9674 46.2496C80.959 47.2549 80.2394 47.0345 78.2051 45.0972ZM96.0284 43.8297V112.142V116H20V116V112.142V43.8297V39.9716V39.9716H96.0284V43.8297ZM92.1702 112.142V109.316C91.2094 108.571 89.8428 108.929 89.4388 110.085C89.1603 110.881 89.2779 111.351 89.9374 112.082L89.9918 112.142H92.1702ZM92.1702 100.619V95.422C91.5478 95.0601 90.4667 95.0598 89.9755 95.4662C88.7723 96.4614 89.1505 97.6723 91.328 99.7975L92.1702 100.619ZM92.1702 86.6833V81.6773C91.2087 80.931 89.8428 81.2907 89.4381 82.4478C89.0927 83.4355 89.3551 83.9222 91.2187 85.7501L92.1702 86.6833ZM92.1702 72.9804V67.783C91.5478 67.4211 90.4667 67.4208 89.9755 67.8272C88.7723 68.8224 89.1505 70.0333 91.328 72.1585L92.1702 72.9804ZM92.1702 59.0443V54.0389C91.2056 53.2929 89.8432 53.6508 89.4381 54.8088C89.0927 55.7965 89.3551 56.2833 91.2187 58.1111L92.1702 59.0443ZM24.0079 101.615L23.8582 101.497V96.4676L25.2374 97.8763C27.2342 99.9151 27.4283 100.431 26.5957 101.486C26.0033 102.237 24.8733 102.293 24.0079 101.615ZM24.1092 87.7917L23.8582 87.5811V82.534L25.2374 83.9426C27.3107 86.0596 27.5486 86.7855 26.5082 87.8223C25.7847 88.5437 24.9938 88.5336 24.1092 87.7917ZM24.0079 73.9759L23.8582 73.8585V68.8287L25.2374 70.2373C27.2342 72.2762 27.4283 72.7924 26.5957 73.8475C26.0033 74.5983 24.8733 74.6545 24.0079 73.9759ZM24.1092 60.1527L23.8582 59.9422V54.895L25.2374 56.3036C27.3107 58.4206 27.5486 59.1465 26.5082 60.1833C25.7847 60.9047 24.9938 60.8946 24.1092 60.1527ZM24.1092 46.219L23.8582 46.0085V43.8297H26.6235L26.7007 43.9471C27.2294 44.7514 27.1583 45.6018 26.5082 46.2496C25.7847 46.971 24.9938 46.9609 24.1092 46.219ZM34.5378 112.142H39.5838L38.1718 110.768C36.1262 108.778 35.6083 108.585 34.5498 109.414C33.7965 110.005 33.7401 111.131 34.421 111.994L34.5378 112.142ZM48.4997 112.142H53.5632L52.1512 110.768C50.0272 108.702 49.2989 108.465 48.2587 109.502C47.535 110.223 47.5451 111.011 48.2894 111.893L48.4997 112.142ZM62.2674 112.142H67.3134L65.9014 110.768C63.8558 108.778 63.3379 108.585 62.2793 109.414C61.5261 110.005 61.4697 111.131 62.1505 111.994L62.2674 112.142ZM76.2293 112.142H81.3025L79.867 110.768C77.7146 108.709 77.0134 108.48 75.9883 109.502C75.2646 110.223 75.2747 111.011 76.019 111.893L76.2293 112.142ZM29.2628 49.0798C27.3838 50.9594 26.9945 51.4688 26.9945 52.0463C26.9945 53.3707 28.3546 54.1864 29.5422 53.5744C29.891 53.3946 31.0244 52.367 32.061 51.2907C33.6553 49.6353 33.9459 49.2159 33.9459 48.5688C33.9459 47.6128 33.153 46.8104 32.2081 46.8104C31.6558 46.8104 31.1131 47.2284 29.2628 49.0798ZM43.1881 48.9164C41.002 51.0531 40.6583 51.6148 40.914 52.631C41.0894 53.3275 42.2221 53.9511 42.9715 53.7635C43.2743 53.6877 44.5258 52.6073 45.7527 51.3626C47.8551 49.2298 47.9752 49.0567 47.8391 48.3548C47.659 47.4255 46.9408 46.8104 46.0358 46.8104C45.4704 46.8104 44.9456 47.1985 43.1881 48.9164ZM56.9578 49.0064C55.7792 50.2143 54.7534 51.3946 54.6787 51.6296C54.4807 52.2516 55.0493 53.269 55.7936 53.6244C56.7664 54.0893 57.4775 53.6795 59.7177 51.3631C61.384 49.6403 61.6755 49.2246 61.6755 48.5713C61.6755 47.5745 60.8867 46.8104 59.8579 46.8104C59.2027 46.8104 58.8134 47.1053 56.9578 49.0064ZM70.9177 48.9164C68.7316 51.0531 68.3879 51.6148 68.6436 52.631C68.8173 53.3206 69.952 53.9508 70.6883 53.7667C70.9839 53.6927 72.1914 52.6657 73.3716 51.4846C75.2964 49.5581 75.5174 49.2509 75.5174 48.5012C75.5174 47.4963 74.8065 46.8104 73.7654 46.8104C73.2 46.8104 72.6752 47.1985 70.9177 48.9164ZM84.6798 48.9233C83.4746 50.1266 82.4963 51.3073 82.4069 51.666C82.0865 52.9538 83.5805 54.1754 84.8398 53.6555C85.1815 53.5143 86.3486 52.4951 87.4331 51.3905C89.177 49.614 89.4051 49.286 89.4051 48.553C89.4051 47.4529 88.7549 46.8104 87.6423 46.8104C86.8803 46.8104 86.5854 47.0208 84.6798 48.9233ZM34.5498 54.1366C34.096 54.4922 33.9459 54.8154 33.9459 55.4374C33.9459 56.1798 34.1767 56.4948 36.1929 58.5044C38.6324 60.936 39.1043 61.1432 40.2171 60.2706C40.6773 59.9099 40.821 59.5938 40.821 58.943C40.821 58.1634 40.623 57.8945 38.5614 55.8758C36.1134 53.4785 35.6468 53.2763 34.5498 54.1366ZM48.2587 54.2238C47.2208 55.2581 47.4525 55.7947 50.057 58.3909C51.9048 60.2324 52.5547 60.7441 53.0468 60.7441C53.9185 60.7441 54.8004 59.8135 54.8004 58.8937C54.8004 58.2756 54.4571 57.8224 52.5421 55.9139C50.6274 54.0052 50.1727 53.663 49.5526 53.663C49.0814 53.663 48.6208 53.8627 48.2587 54.2238ZM62.2793 54.1366C61.8256 54.4922 61.6755 54.8154 61.6755 55.4374C61.6755 56.1798 61.9062 56.4948 63.9225 58.5044C66.362 60.936 66.8339 61.1432 67.9467 60.2706C68.4069 59.9099 68.5506 59.5938 68.5506 58.943C68.5506 58.1634 68.3526 57.8945 66.291 55.8758C63.843 53.4785 63.3764 53.2763 62.2793 54.1366ZM75.9883 54.2238C74.9733 55.2353 75.1974 55.7796 77.6541 58.2719C78.8797 59.5152 80.1248 60.5933 80.4209 60.6674C81.6296 60.9698 82.7433 59.7955 82.4296 58.5497C82.3425 58.2034 81.4788 57.1069 80.5098 56.1129C78.0032 53.5404 77.0665 53.1489 75.9883 54.2238ZM31.5396 60.7338C30.8661 61.026 27.1425 64.8856 26.9677 65.4724C26.7605 66.1677 27.4122 67.3304 28.1062 67.504C29.1258 67.7589 29.6893 67.4163 31.8329 65.2374C33.5565 63.4856 33.9459 62.9625 33.9459 62.399C33.9459 61.1466 32.6518 60.2509 31.5396 60.7338ZM45.169 60.8951C44.8574 61.1039 43.7514 62.1555 42.7116 63.2321C40.6026 65.4153 40.3844 66.0403 41.3836 67.036C42.4149 68.0641 43.1067 67.8322 45.3159 65.718C48.1056 63.0484 48.4109 62.3351 47.2554 61.1834C46.4925 60.4229 45.9798 60.3521 45.169 60.8951ZM59.2692 60.7338C58.5957 61.026 54.8721 64.8856 54.6972 65.4724C54.4901 66.1677 55.1418 67.3304 55.8358 67.504C56.8553 67.7589 57.4189 67.4163 59.5625 65.2374C61.2861 63.4856 61.6755 62.9625 61.6755 62.399C61.6755 61.1466 60.3814 60.2509 59.2692 60.7338ZM72.7902 60.9392C72.4121 61.1712 71.3034 62.1978 70.3266 63.2202C68.3226 65.3178 68.0977 66.0241 69.1132 67.036C70.1445 68.0641 70.8363 67.8322 73.0455 65.718C75.8352 63.0484 76.1405 62.3351 74.985 61.1834C74.2067 60.4076 73.7408 60.3558 72.7902 60.9392ZM84.8082 62.7101C83.5757 63.9171 82.5052 65.1515 82.4291 65.4532C82.2694 66.088 82.7979 67.2466 83.3424 67.4549C84.4027 67.8606 84.8842 67.5983 87.1454 65.384C89.2071 63.3652 89.4051 63.0964 89.4051 62.3168C89.4051 61.666 89.2614 61.3499 88.8012 60.9892C87.7055 60.1301 87.2367 60.3323 84.8082 62.7101ZM34.4042 68.0536C34.1329 68.324 33.9459 68.8149 33.9459 69.2571C33.9459 69.8976 34.264 70.3195 36.1844 72.2266C37.947 73.9768 38.5593 74.4494 39.0642 74.4494C39.9708 74.4494 40.5079 74.1045 40.7706 73.3532C41.1159 72.3655 40.6608 71.5987 38.4713 69.4812C36.759 67.8252 36.4221 67.5967 35.6926 67.5967C35.1681 67.5967 34.6939 67.7649 34.4042 68.0536ZM48.1712 68.1986C47.2957 69.3078 47.5036 69.7782 49.9431 72.2097C51.9593 74.2194 52.2754 74.4494 53.0202 74.4494C53.6442 74.4494 53.9685 74.2998 54.3253 73.8475C55.1884 72.754 54.9855 72.289 52.5804 69.849C50.555 67.7941 50.2853 67.5967 49.5031 67.5967C48.8502 67.5967 48.533 67.74 48.1712 68.1986ZM62.1338 68.0536C61.8625 68.324 61.6755 68.8149 61.6755 69.2571C61.6755 69.8976 61.9936 70.3195 63.914 72.2266C65.82 74.1193 66.2625 74.4494 66.8932 74.4494C67.9011 74.4494 68.5506 73.7609 68.5506 72.6924C68.5506 71.9326 68.3386 71.6375 66.4175 69.7229C64.4966 67.808 64.2005 67.5967 63.4383 67.5967C62.8976 67.5967 62.4267 67.7617 62.1338 68.0536ZM75.9008 68.1986C75.0253 69.3078 75.2332 69.7782 77.6727 72.2097C79.6889 74.2194 80.005 74.4494 80.7498 74.4494C81.3738 74.4494 81.6981 74.2998 82.0549 73.8475C82.9179 72.754 82.7151 72.289 80.31 69.849C78.2846 67.7941 78.0148 67.5967 77.2327 67.5967C76.5798 67.5967 76.2626 67.74 75.9008 68.1986ZM29.2312 76.6543C28.0477 77.867 27.0195 79.0473 26.9463 79.2775C26.7506 79.8915 27.3238 80.9098 28.064 81.2634C29.0368 81.7282 29.7479 81.3185 31.9881 79.002C33.6544 77.2793 33.9459 76.8636 33.9459 76.2103C33.9459 75.2162 33.1569 74.4494 32.1341 74.4494C31.486 74.4494 31.0881 74.7516 29.2312 76.6543ZM43.1881 76.5554C41.002 78.6921 40.6583 79.2538 40.914 80.27C41.0877 80.9596 42.2224 81.5898 42.9587 81.4057C43.2543 81.3317 44.4618 80.3047 45.642 79.1236C47.5668 77.1971 47.7878 76.8898 47.7878 76.1402C47.7878 75.1353 47.0769 74.4494 46.0358 74.4494C45.4704 74.4494 44.9456 74.8375 43.1881 76.5554ZM57.1079 76.4008C54.7839 78.6336 54.3727 79.3424 54.8391 80.312C55.0091 80.6659 55.4485 81.0987 55.8154 81.2739C56.4059 81.556 56.5705 81.5453 57.2518 81.1796C57.6751 80.9523 58.8436 79.9128 59.8485 78.8696C61.3892 77.2699 61.6755 76.8528 61.6755 76.2078C61.6755 75.2224 60.8848 74.4494 59.8767 74.4494C59.2616 74.4494 58.8005 74.7742 57.1079 76.4008ZM70.9177 76.5554C68.7316 78.6921 68.3879 79.2538 68.6436 80.27C68.8173 80.9596 69.952 81.5898 70.6883 81.4057C70.9839 81.3317 72.1914 80.3047 73.3716 79.1236C75.2964 77.1971 75.5174 76.8898 75.5174 76.1402C75.5174 75.1353 74.8065 74.4494 73.7654 74.4494C73.2 74.4494 72.6752 74.8375 70.9177 76.5554ZM84.81 76.4149C83.7017 77.4958 82.6743 78.6704 82.5272 79.0247C82.1782 79.8643 82.6148 80.8296 83.545 81.2739C84.1339 81.5553 84.2998 81.5453 84.9637 81.1889C85.3772 80.9671 86.5457 79.9379 87.5602 78.9018C89.1798 77.2478 89.4051 76.9168 89.4051 76.1904C89.4051 75.0981 88.7535 74.4494 87.6567 74.4494C86.9213 74.4494 86.5922 74.6767 84.81 76.4149ZM34.5498 81.7755C34.096 82.1312 33.9459 82.4544 33.9459 83.0764C33.9459 83.8188 34.1767 84.1338 36.1929 86.1434C38.6324 88.5749 39.1043 88.7821 40.2171 87.9096C40.6773 87.5489 40.821 87.2327 40.821 86.582C40.821 85.8024 40.623 85.5335 38.5614 83.5147C36.1134 81.1175 35.6468 80.9153 34.5498 81.7755ZM48.2587 81.8628C47.2208 82.8971 47.4525 83.4336 50.057 86.0299C51.9048 87.8714 52.5547 88.3831 53.0468 88.3831C53.9185 88.3831 54.8004 87.4525 54.8004 86.5326C54.8004 85.9145 54.4571 85.4613 52.5421 83.5529C50.6274 81.6442 50.1727 81.302 49.5526 81.302C49.0814 81.302 48.6208 81.5017 48.2587 81.8628ZM62.2793 81.7755C61.8256 82.1312 61.6755 82.4544 61.6755 83.0764C61.6755 83.8188 61.9062 84.1338 63.9225 86.1434C66.362 88.5749 66.8339 88.7821 67.9467 87.9096C68.4069 87.5489 68.5506 87.2327 68.5506 86.582C68.5506 85.8024 68.3526 85.5335 66.291 83.5147C63.843 81.1175 63.3764 80.9153 62.2793 81.7755ZM75.9883 81.8628C74.9504 82.8971 75.1821 83.4336 77.7866 86.0299C79.6344 87.8714 80.2843 88.3831 80.7764 88.3831C81.6481 88.3831 82.53 87.4525 82.53 86.5326C82.53 85.9145 82.1867 85.4613 80.2717 83.5529C78.357 81.6442 77.9023 81.302 77.2822 81.302C76.811 81.302 76.3504 81.5017 75.9883 81.8628ZM31.5396 88.3728C30.8661 88.6649 27.1425 92.5246 26.9677 93.1114C26.7605 93.8067 27.4122 94.9694 28.1062 95.143C29.1258 95.3979 29.6893 95.0553 31.8329 92.8763C33.5565 91.1246 33.9459 90.6015 33.9459 90.038C33.9459 88.7855 32.6518 87.8899 31.5396 88.3728ZM45.0606 88.5781C44.6825 88.8102 43.574 89.8367 42.5971 90.8592C40.593 92.9567 40.3682 93.663 41.3836 94.6749C42.4149 95.7031 43.1067 95.4712 45.3159 93.3569C48.1056 90.6874 48.4109 89.974 47.2554 88.8223C46.4771 88.0466 46.0112 87.9948 45.0606 88.5781ZM57.1083 90.3201C55.8596 91.5431 54.7756 92.7905 54.6995 93.0922C54.5114 93.8391 55.137 94.9682 55.8358 95.143C56.8553 95.3979 57.4189 95.0553 59.5625 92.8763C61.2861 91.1246 61.6755 90.6015 61.6755 90.038C61.6755 89.1359 61.0583 88.4201 60.1261 88.2405C59.4218 88.1049 59.2481 88.2245 57.1083 90.3201ZM72.7902 88.5781C72.4121 88.8102 71.3034 89.8367 70.3266 90.8592C68.9056 92.3466 68.5506 92.8576 68.5506 93.4161C68.5506 94.3396 69.4464 95.2357 70.3693 95.2357C71.5259 95.2357 75.6549 91.0912 75.6549 89.9302C75.6549 89.3715 74.449 88.1544 73.8964 88.1556C73.6661 88.156 73.1684 88.3463 72.7902 88.5781ZM84.8082 90.3491C83.5757 91.5561 82.5052 92.7905 82.4291 93.0922C82.2694 93.727 82.7979 94.8855 83.3424 95.0939C84.4027 95.4995 84.8842 95.2373 87.1454 93.023C89.2071 91.0042 89.4051 90.7354 89.4051 89.9557C89.4051 89.305 89.2614 88.9888 88.8012 88.6282C87.7055 87.7691 87.2367 87.9712 84.8082 90.3491ZM34.9442 95.3481C34.1867 95.6656 33.9459 96.071 33.9459 97.029C33.9459 97.932 38.1505 102.088 39.0642 102.088C39.9708 102.088 40.5079 101.743 40.7706 100.992C41.1093 100.024 40.6647 99.2525 38.6106 97.2465C36.5408 95.2247 35.9582 94.9232 34.9442 95.3481ZM48.9029 95.2579C48.6442 95.3533 48.267 95.6672 48.0644 95.9555C47.3326 96.9966 47.5652 97.4786 49.9431 99.8487C51.9593 101.858 52.2754 102.088 53.0202 102.088C53.6442 102.088 53.9685 101.939 54.3253 101.486C55.187 100.395 54.9844 99.9268 52.6029 97.5106C50.4218 95.2981 49.8079 94.9244 48.9029 95.2579ZM62.6676 95.3508C61.9161 95.6658 61.6755 96.0726 61.6755 97.029C61.6755 97.5014 62.1909 98.1545 63.914 99.8656C65.82 101.758 66.2625 102.088 66.8932 102.088C67.8952 102.088 68.5506 101.399 68.5506 100.346C68.5506 99.6125 68.3223 99.2845 66.5731 97.5026C64.3753 95.264 63.727 94.9068 62.6676 95.3508ZM76.6325 95.2579C76.3738 95.3533 75.9965 95.6672 75.794 95.9555C75.0622 96.9966 75.2948 97.4786 77.6727 99.8487C79.6889 101.858 80.005 102.088 80.7498 102.088C81.3738 102.088 81.6981 101.939 82.0549 101.486C82.9166 100.395 82.714 99.9268 80.3325 97.5106C78.1514 95.2981 77.5375 94.9244 76.6325 95.2579ZM29.5112 103.909C28.4646 104.911 27.4216 106.076 27.1936 106.498C26.8267 107.177 26.8159 107.341 27.099 107.929C27.2747 108.295 27.7189 108.738 28.0858 108.913C28.6764 109.195 28.8409 109.184 29.5222 108.819C29.9455 108.591 31.114 107.552 32.1189 106.509C33.6597 104.909 33.9459 104.492 33.9459 103.847C33.9459 102.862 33.155 102.088 32.1497 102.088C31.5426 102.088 31.0824 102.406 29.5112 103.909ZM43.068 104.328C41.228 106.162 40.8224 106.689 40.8283 107.24C40.8407 108.382 41.9263 109.303 42.9559 109.045C43.2532 108.971 44.4618 107.944 45.642 106.763C47.5668 104.836 47.7878 104.529 47.7878 103.779C47.7878 102.77 47.076 102.088 46.0218 102.088C45.433 102.088 44.9399 102.462 43.068 104.328ZM57.1079 104.04C54.7839 106.273 54.3727 106.981 54.8391 107.951C55.0091 108.305 55.4301 108.729 55.7746 108.893C56.7089 109.34 57.6503 108.791 59.8302 106.527C61.3879 104.91 61.6755 104.492 61.6755 103.847C61.6755 102.861 60.8848 102.088 59.8767 102.088C59.2616 102.088 58.8005 102.413 57.1079 104.04ZM70.9177 104.194C68.7316 106.331 68.3879 106.893 68.6436 107.909C68.8173 108.599 69.952 109.229 70.6883 109.045C70.9839 108.971 72.1914 107.944 73.3716 106.763C75.2964 104.836 75.5174 104.529 75.5174 103.779C75.5174 102.774 74.8065 102.088 73.7654 102.088C73.2 102.088 72.6752 102.476 70.9177 104.194ZM84.81 104.054C82.4972 106.31 82.1062 106.99 82.5687 107.951C82.7387 108.305 83.1597 108.729 83.5042 108.893C84.4307 109.336 85.3345 108.814 87.5435 106.558C89.1791 104.887 89.4051 104.556 89.4051 103.829C89.4051 102.737 88.7535 102.088 87.6567 102.088C86.9213 102.088 86.5922 102.316 84.81 104.054Z" fill="#F42525"/>
</svg>
